<svg width="1299" height="1125" xmlns="http://www.w3.org/2000/svg" xmlns:xlink="http://www.w3.org/1999/xlink" xml:space="preserve" overflow="hidden"><defs><linearGradient x1="1686.56" y1="765.383" x2="2498.44" y2="2171.62" gradientUnits="userSpaceOnUse" spreadMethod="reflect" id="fill0"><stop offset="0" stop-color="#FFFFFF" stop-opacity="0"/><stop offset="0.5" stop-color="#FFFFFF" stop-opacity="0"/><stop offset="1" stop-color="#0000FF"/></linearGradient><linearGradient x1="1686.56" y1="2171.62" x2="2498.44" y2="765.383" gradientUnits="userSpaceOnUse" spreadMethod="reflect" id="fill1"><stop offset="0" stop-color="#FFFFFF" stop-opacity="0"/><stop offset="0.5" stop-color="#FFFFFF" stop-opacity="0"/><stop offset="1" stop-color="#00FF00"/></linearGradient><linearGradient x1="2742" y1="1468.5" x2="1443" y2="1468.5" gradientUnits="userSpaceOnUse" spreadMethod="reflect" id="fill2"><stop offset="0" stop-color="#FFFFFF" stop-opacity="0"/><stop offset="0.5" stop-color="#FFFFFF" stop-opacity="0"/><stop offset="1" stop-color="#FF0000"/></linearGradient></defs><g transform="translate(-1443 -906)"><path d="M1443 1468.5 1724.25 906 2460.75 906 2742 1468.5 2460.75 2031 1724.25 2031Z" fill="#FFFFFF" fill-rule="evenodd"/><path d="M1443 1468.5 1724.25 906 2460.75 906 2742 1468.5 2460.75 2031 1724.25 2031Z" fill="url(#fill0)" fill-rule="evenodd"/><path d="M1443 1468.5 1724.25 906 2460.75 906 2742 1468.5 2460.75 2031 1724.25 2031Z" fill="url(#fill1)" fill-rule="evenodd"/><path d="M1443 1468.5 1724.25 906 2460.75 906 2742 1468.5 2460.75 2031 1724.25 2031Z" fill="url(#fill2)" fill-rule="evenodd"/></g></svg>